<svg id="Laag_1" data-name="Laag 1" xmlns="http://www.w3.org/2000/svg" viewBox="0 0 750 240"><defs><style>.cls-1,.cls-2{fill:#0085a0;}.cls-2{font-size:28px;font-family:FilsonSoftMedium, Filson Soft;}</style></defs><title>Logo_Leviy_Logo_Blauw-2_Groot</title><path class="cls-1" d="M102,0A102,102,0,1,0,204,102,102.12,102.12,0,0,0,102,0Zm0,11.08a90.87,90.87,0,0,1,86.4,119.17c-3.38,1.8-9,3.71-18,4.67-15.75,1.67-36.1-2.62-45.77-10.26s-19.29-15.77-22.4-27.39C97.8,80.7,105.79,70,115.42,68.86a11.32,11.32,0,0,1,12.85,9.78,15.39,15.39,0,0,1-1.91,9.72,1.43,1.43,0,0,0,1.36,2.07c7.18-.32,13.58-5.31,15.94-13.6,2.89-10.16-2-27.63-23.53-32-14.71-3-33.31,2.91-47.72,26.72-21.24,35.1-33,55.68-56.33,60.17A90.86,90.86,0,0,1,102,11.08ZM26.55,152.66c8.59-5.41,16.32-12.62,31.18-31.34,5.64-7.1,12.11-11,19.25-11.29,9-.35,13.3,2.8,19.48,8.15,7.42,6.42,17.82,20,26.59,30.17,10.15,11.81,25.41,26.3,38.15,22.15,0,0,.32-.11.87-.34a90.76,90.76,0,0,1-135.52-17.5Z"/><path class="cls-1" d="M297,21.22V182.8H264V21.22Z"/><path class="cls-1" d="M358.43,154.66q7.26,7,20.88,7a28.72,28.72,0,0,0,16.78-4.88c4.69-3.25,7.56-6.7,8.62-10.61h28.36c-4.54,14.35-11.5,24.41-20.87,30.46s-20.72,9.08-34,9.08a66.93,66.93,0,0,1-24.95-4.43,51.82,51.82,0,0,1-18.83-12.59,56.8,56.8,0,0,1-11.91-19.51,71.45,71.45,0,0,1-4.2-25,68.57,68.57,0,0,1,4.31-24.51,56.74,56.74,0,0,1,31.19-32.67,60.72,60.72,0,0,1,24.39-4.77q15,0,26.09,5.79a52.1,52.1,0,0,1,18.26,15.54,64.05,64.05,0,0,1,10.32,22.24A82.89,82.89,0,0,1,435.11,132H350.5Q351.17,147.63,358.43,154.66ZM394.84,93q-5.77-6.36-17.57-6.36a28.12,28.12,0,0,0-12.82,2.61,24.36,24.36,0,0,0-8.17,6.47,23.63,23.63,0,0,0-4.31,8.17,38.41,38.41,0,0,0-1.47,7.29h52.4C401.38,103.38,398.7,97.18,394.84,93Z"/><path class="cls-1" d="M482.73,182.9,442.57,66.12h33.8l24.73,79.46h.45l24.73-79.46h32L518.57,182.9Z"/><path class="cls-1" d="M579,47.86V21.17h33V47.86Zm33,18.26V182.9H579V66.12Z"/><path class="cls-1" d="M686.48,217.74q-9.3,6.12-25.86,6.13c-3.33,0-6.62-.12-9.87-.34s-5.27-.5-8.59-.8V196.18c3,.3,6.12.61,9.3.91a50.53,50.53,0,0,0,8.25.23c4.23-.46,7.38-2.12,9.41-5a16.07,16.07,0,0,0,3.07-9.53,19.32,19.32,0,0,0-1.36-7.26L629.77,66.12H664l26.54,79.69H691l25.63-79.69H750l-49,131.2Q695.78,211.62,686.48,217.74Z"/><text class="cls-2" transform="translate(726.52 183.31)">®</text></svg>